<?xml version="1.0" ?><svg style="enable-background:new 0 0 47 45.4;" version="1.1" viewBox="0 0 47 45.4" xml:space="preserve" xmlns="http://www.w3.org/2000/svg" xmlns:xlink="http://www.w3.org/1999/xlink"><style type="text/css">
	.st0{display:none;}
	.st1{display:inline;}
	.st2{fill:#E5E8EC;}
	.st3{fill:#0561FC;}
	.st4{fill:#7EB3FF;}
	.st5{fill:#9AC7F7;}
	.st6{fill:#B2D2EA;}
	.st7{fill:#C5E1F9;}
	.st8{fill:none;stroke:#7EB3FF;stroke-width:2.0459;}
	.st9{fill:#0561FC;stroke:#0561FC;stroke-width:2.0459;}
	.st10{fill:#7EB3FF;stroke:#7EB3FF;stroke-width:2.0459;}
	.st11{fill:none;stroke:#FFFFFF;stroke-width:2.0459;}
	.st12{fill:none;stroke:#0561FC;stroke-width:2;stroke-miterlimit:10;}
	.st13{fill:#FFC400;}
	.st14{fill:#7EB3FF;stroke:#7EB3FF;stroke-width:2;}
	.st15{fill:#0561FC;stroke:#0561FC;stroke-width:2;}
	.st16{fill:#FFFFFF;}
	.st17{fill:#0450CF;}
	.st18{fill:#EAF4FE;stroke:#0561FC;stroke-width:2;}
	.st19{fill:none;stroke:#FFFFFF;stroke-width:2;}
	.st20{fill:none;stroke:#FFFFFF;stroke-width:2;stroke-linecap:round;}
	.st21{fill:none;stroke:#FFFFFF;stroke-width:2;stroke-linecap:round;stroke-linejoin:round;}
	.st22{fill:none;stroke:#FFFFFF;stroke-width:2;stroke-miterlimit:10;}
	.st23{fill:none;stroke:#7EB3FF;stroke-width:2;}
	.st24{fill:none;stroke:#0561FC;stroke-width:2;}
	.st25{fill:#EAF4FE;}
	.st26{fill:#FD2227;}
	.st27{fill:none;stroke:#0561FC;stroke-width:1.1297;}
	.st28{fill:none;stroke:#0450CF;stroke-width:1.1297;}
	.st29{fill:none;stroke:#FFFFFF;stroke-width:1.1591;stroke-miterlimit:10;}
	.st30{fill:none;stroke:#9AC7F7;stroke-width:2;stroke-dasharray:2.5103,2.5103;}
</style><g id="Background"/><g class="st0" id="Square"><g class="st1"><rect class="st2" height="48" width="48" x="-0.4" y="-3.2"/></g><g class="st1" id="Layer_4"/></g><g id="Icons"><g><path class="st4" d="M40.7,0H6.3C2.8,0,0,2.8,0,6.3v25.1c0,3.5,2.8,6.3,6.3,6.3h3.1v7.9l8.9-7.9h22.4c3.5,0,6.3-2.8,6.3-6.3V6.3    C47,2.8,44.2,0,40.7,0z"/><path class="st16" d="M33.6,27.1h-9.5v-7.4c0-2.7,0.6-4.8,1.7-6.4c1.1-1.6,3.1-3,5.8-4.1l2.1,3.9c-1.7,0.8-2.9,1.6-3.5,2.4    c-0.6,0.8-1,1.7-1.1,2.8h4.6V27.1z M20.9,27.1h-9.5v-7.4c0-2.7,0.6-4.8,1.7-6.4c1.1-1.6,3.1-3,5.8-4.1l2.1,3.9    c-1.7,0.8-2.9,1.6-3.5,2.4c-0.6,0.8-1,1.7-1.1,2.8h4.6V27.1z"/></g></g></svg>