<?xml version="1.0" ?><svg id="Layer_1" style="enable-background:new 0 0 30 30;" version="1.1" viewBox="0 0 30 30" xml:space="preserve" xmlns="http://www.w3.org/2000/svg" xmlns:xlink="http://www.w3.org/1999/xlink"><g id="_x31_34"><path d="M24,4.1519861H6c-1.6499634,0-3,1.3400269-3,3v10.8200064c0,1.6499634,1.3500366,3,3,3h4.9541626l2.5594482,4.0565796   c0.7125607,1.117054,2.3163118,1.0678482,2.979126,0l2.5678101-4.0565796H24c1.6600342,0,3-1.3500366,3-3V7.1519861   C27,5.492013,25.6600342,4.1519861,24,4.1519861z M15,11.0619593c0.8300171,0,1.5,0.6700439,1.5,1.5   c0,0.8300171-0.6699829,1.5-1.5,1.5c-0.8299561,0-1.5-0.6699829-1.5-1.5C13.5,11.7320032,14.1700439,11.0619593,15,11.0619593z    M9.5,14.0619593c-0.8299561,0-1.5-0.6699829-1.5-1.5c0-0.8299561,0.6700439-1.5,1.5-1.5c0.8300171,0,1.5,0.6700439,1.5,1.5   C11,13.3919764,10.3300171,14.0619593,9.5,14.0619593z M20.5,14.0619593c-0.8299561,0-1.5-0.6699829-1.5-1.5   c0-0.8299561,0.6700439-1.5,1.5-1.5c0.8300171,0,1.5,0.6700439,1.5,1.5C22,13.3919764,21.3300171,14.0619593,20.5,14.0619593z"/></g></svg>