<?xml version="1.0" ?><svg id="Layer_1" style="enable-background:new 0 0 27 27;" version="1.1" viewBox="0 0 27 27" xml:space="preserve" xmlns="http://www.w3.org/2000/svg" xmlns:xlink="http://www.w3.org/1999/xlink"><g id="_x34_9"><path d="M21.2000122,2.1199951H5.8099976C3.4395142,2.1199951,1.5,4.0595093,1.5,6.4299927v10.1699829   c0,2.3800049,1.9299927,4.2999878,4.2999878,4.2999878l3.3641357,0.0449219   c0.2336426,0.0031738,0.4489746,0.1270752,0.5690918,0.3274536l1.5567627,2.5976563   c0.3800049,0.6300049,1.0500488,1.0100098,1.7900391,1.0100098S14.4899902,24.5,14.8699951,23.8699951l1.6228027-2.6482544   c0.1224976-0.1998901,0.3401489-0.3217773,0.574646-0.3217773h4.1325684c2.3699951,0,4.2999878-1.9199829,4.2999878-4.2999878   V6.4199829C25.5,4.045166,23.5748291,2.1199951,21.2000122,2.1199951z M13.4995117,15.5345459H8.4169922   c-0.5522461,0-1-0.4477539-1-1s0.4477539-1,1-1h5.0825195c0.5522461,0,1,0.4477539,1,1   S14.0517578,15.5345459,13.4995117,15.5345459z M18.5830078,9.4949951H8.4169922c-0.5522461,0-1-0.4477539-1-1s0.4477539-1,1-1   h10.1660156c0.5522461,0,1,0.4477539,1,1S19.1352539,9.4949951,18.5830078,9.4949951z"/></g></svg>